<svg xmlns="http://www.w3.org/2000/svg" viewBox="0 0 48 48">
  <path fill="#EA4335" d="M24 9.5c3.54 0 6 1.54 7.38 2.84l5.4-5.26C33.64 3.08 29.3 1 24 1 14.96 1 7.21 6.16 3.64 13.5l6.42 4.98C11.39 13.17 17.13 9.5 24 9.5z" />
  <path fill="#4285F4" d="M46.5 24.5c0-1.57-.14-3.08-.41-4.5H24v8.51h12.65c-.55 2.8-2.24 5.18-4.77 6.79l7.73 6C43.9 37.73 46.5 31.73 46.5 24.5z" />
  <path fill="#FBBC05" d="M10.06 28.48A14.47 14.47 0 0 1 9.5 24c0-1.55.27-3.04.75-4.44l-6.42-5A23.86 23.86 0 0 0 1.5 24c0 3.86.92 7.5 2.53 10.72l6.03-4.24z" />
  <path fill="#34A853" d="M24 46.5c6.3 0 11.6-2.07 15.47-5.78l-7.73-6c-2.15 1.45-4.93 2.28-7.74 2.28-6.87 0-12.61-4.67-14.64-11.03l-6.42 4.98C7.21 41.84 14.96 46.5 24 46.5z" />
</svg>

